:SAMPLES-PER-SECOND 30
:FULLY-SPECIFIED
:DEGREES
326
root  -20.3701 38.4818 -8.19262 -1.41608 12.7465 3.52794
RightUpLeg  18.4091 -22.8308 -19.9839
RightLeg  28.0791 -7.29889 -4.44362
RightFoot  -6.97849 -0.925987 26.7331
RightToes  5.82063e-011 0 -3.6325e-017
Spine  5.09307 2.54967 5.13927
Spine1  8.07788 5.07189 -11.0071
HEad  -17.8618 29.9612 -9.39224
LeftShoulder1  -0.181396 3.98081 -31.9122
LeftArm  -4.61787 17.7875 -34.9153
LeftForeArm  36.4183 -2.65552 -7.6987
LeftHand  -0.0769353 6.13442 -5.65774
RightShoulder  -0.561523 -5.19476 26.4752
RightArm  30.534 0.674442 57.0886
RightForeArm  -2.99235 17.4542 7.01154
RightHand  -0.622058 4.18388 -7.78625
LeftUpLeg  -16.8137 12.5037 -12.878
LeftLeg  20.3567 13.7427 4.32944
LeftFoot  -3.75718 -0.930812 14.3051
LeftToes  1.81573e-012 2.54609e-010 -3.45981e-011
327
root  -20.0675 38.6279 -7.18635 -2.28189 14.9808 3.60782
RightUpLeg  13.1747 -17.6432 -18.2505
RightLeg  39.3904 -5.38446 -4.87504
RightFoot  3.07346 -1.98971 15.3136
RightToes  5.82063e-011 0 -3.6325e-017
Spine  5.94013 2.40099 4.32803
Spine1  7.31624 4.78317 -10.7793
HEad  -17.0435 33.2998 -9.37152
LeftShoulder1  -0.239436 4.13063 -32.0633
LeftArm  -4.58275 14.8215 -36.5718
LeftForeArm  35.9111 -3.64033 -8.01859
LeftHand  -0.0726774 6.24433 -4.60526
RightShoulder  -0.504647 -5.02759 26.2953
RightArm  31.2256 1.81128 56.1745
RightForeArm  1.75194 15.1265 8.28744
RightHand  -0.493251 3.35754 -6.79979
LeftUpLeg  -13.4913 11.1602 -12.5175
LeftLeg  19.9181 13.2374 3.83849
LeftFoot  -4.95641 -0.738783 13.7093
LeftToes  1.81573e-012 2.54609e-010 -3.45981e-011
328
root  -19.8463 38.6129 -6.33366 -2.81351 17.6482 3.95115
RightUpLeg  8.5193 -13.6595 -17.0699
RightLeg  48.0465 0.334302 0.13082
RightFoot  6.10172 -1.93245 12.7834
RightToes  5.82063e-011 0 -3.6325e-017
Spine  6.45246 2.29494 2.51525
Spine1  7.78585 4.24417 -10.2075
HEad  -17.3187 36.0003 -9.41761
LeftShoulder1  -0.247697 4.14787 -32.2746
LeftArm  -3.4909 10.615 -38.5215
LeftForeArm  35.096 -4.40705 -8.94986
LeftHand  -0.0693769 6.34996 -3.4322
RightShoulder  -0.485885 -4.97319 26.1994
RightArm  28.724 2.98165 55.2051
RightForeArm  7.13428 12.8562 9.16038
RightHand  -0.499262 2.66623 -7.40279
LeftUpLeg  -11.348 9.17511 -12.6512
LeftLeg  20.7275 12.8438 3.85767
LeftFoot  -6.49569 -0.518653 13.1178
LeftToes  1.81573e-012 2.54609e-010 -3.45981e-011
329
root  -19.6339 38.6453 -5.52324 -2.81146 20.9584 3.85786
RightUpLeg  3.99397 -11.0792 -15.6709
RightLeg  54.0978 5.54257 7.72065
RightFoot  3.35423 -1.97788 15.4309
RightToes  5.82063e-011 0 -3.6325e-017
Spine  6.47998 2.06599 1.46598
Spine1  8.20676 3.72583 -10.1291
HEad  -17.7893 37.4701 -9.46941
LeftShoulder1  -0.106843 3.78677 -31.7119
LeftArm  -1.94159 5.84681 -41.3392
LeftForeArm  33.4068 -4.62003 -9.994
LeftHand  -0.0350551 5.68962 -0.893719
RightShoulder  -0.557213 -5.16028 26.8661
RightArm  23.4888 3.32129 53.3255
RightForeArm  11.2107 11.0548 9.03466
RightHand  -0.502969 2.34901 -7.73961
LeftUpLeg  -9.62798 6.73438 -12.5043
LeftLeg  20.9234 12.284 3.54292
LeftFoot  -7.72187 -0.349939 12.5129
LeftToes  1.81573e-012 2.54609e-010 -3.45981e-011
330
root  -19.4349 38.7043 -4.70395 -2.93594 24.476 3.72197
RightUpLeg  -0.296253 -9.45503 -14.6605
RightLeg  57.8681 6.47807 10.508
RightFoot  2.06476 -1.91271 16.2718
RightToes  5.82063e-011 0 -3.6325e-017
Spine  6.86447 1.73648 -0.00521778
Spine1  8.15925 2.90553 -9.27219
HEad  -18.0299 37.8625 -9.29779
LeftShoulder1  -0.0837873 3.72397 -31.9019
LeftArm  0.473202 1.10973 -43.7792
LeftForeArm  30.6546 -5.99811 -10.7307
LeftHand  -0.0268222 5.27054 0.944262
RightShoulder  -0.492477 -4.98825 26.3496
RightArm  17.528 2.63059 52.3197
RightForeArm  11.9033 9.44848 8.32567
RightHand  -0.474427 2.15378 -7.4735
LeftUpLeg  -7.64276 5.04514 -12.1792
LeftLeg  20.7439 10.6641 2.80648
LeftFoot  -8.71965 -0.229924 12.2952
LeftToes  1.81573e-012 2.54609e-010 -3.45981e-011
331
root  -19.2029 38.8444 -3.8299 -3.29068 28.4289 3.16763
RightUpLeg  -3.85157 -8.8148 -13.5799
RightLeg  58.4622 4.70269 7.79932
RightFoot  1.32588 -1.56197 14.0911
RightToes  5.82063e-011 0 -3.6325e-017
Spine  7.2371 1.24121 -1.32959
Spine1  7.84507 1.87658 -7.69092
HEad  -17.8361 37.7894 -9.02502
LeftShoulder1  -0.115331 3.80526 -32.1192
LeftArm  4.31614 -2.74654 -46.7385
LeftForeArm  27.6557 -9.20864 -10.5132
LeftHand  -0.0234359 4.55576 0.143904
RightShoulder  -0.541555 -5.14199 26.2632
RightArm  13.8703 1.9745 50.8161
RightForeArm  10.7994 8.70627 7.40099
RightHand  -0.417968 1.84232 -6.88055
LeftUpLeg  -5.09358 4.35913 -11.3011
LeftLeg  19.7075 7.52541 1.57652
LeftFoot  -9.48274 -0.1395 12.0917
LeftToes  1.81573e-012 2.54609e-010 -3.45981e-011
332
root  -18.9359 38.984 -2.98931 -3.61996 32.1286 2.4095
RightUpLeg  -7.16324 -8.23075 -12.7383
RightLeg  56.5913 2.23212 3.26234
RightFoot  0.219298 -1.26981 12.5102
RightToes  5.82063e-011 0 -3.6325e-017
Spine  7.70508 0.720622 -1.53868
Spine1  7.17649 1.23945 -7.12939
HEad  -17.87 37.1928 -8.3904
LeftShoulder1  -0.0780216 3.71018 -31.7109
LeftArm  10.8791 -6.14304 -50.1314
LeftForeArm  22.7221 -13.0913 -9.54407
LeftHand  -0.011575 3.57076 -0.555857
RightShoulder  -0.620885 -5.36603 26.6342
RightArm  11.7175 1.19263 49.3075
RightForeArm  6.05219 8.12231 6.86116
RightHand  -0.502149 3.24119 -6.99302
LeftUpLeg  -2.82412 4.14412 -10.2452
LeftLeg  18.6726 4.16271 0.608692
LeftFoot  -10.1304 -0.0682184 12.1973
LeftToes  1.81573e-012 2.54609e-010 -3.45981e-011
333
root  -18.6248 39.1028 -2.15287 -4.1651 35.7419 1.53875
RightUpLeg  -9.6186 -7.47085 -12.1018
RightLeg  52.3377 0.270306 -0.00516031
RightFoot  -0.460288 -0.950263 9.91979
RightToes  5.82063e-011 0 -3.6325e-017
Spine  8.17462 0.305548 -1.5007
Spine1  6.79077 0.708931 -6.23615
HEad  -18.0525 36.3653 -8.4515
LeftShoulder1  -0.0913813 3.74384 -31.9449
LeftArm  19.9795 -9.90429 -53.1374
LeftForeArm  15.8437 -16.8459 -7.97532
LeftHand  -0.0183941 3.42662 -0.182972
RightShoulder  -0.568164 -5.22236 26.2599
RightArm  10.089 -0.286977 48.1023
RightForeArm  5.54174 8.77477 6.15243
RightHand  -0.481178 3.7129 -6.38243
LeftUpLeg  -0.540248 4.11903 -9.11551
LeftLeg  17.7827 0.92847 -0.0169723
LeftFoot  -10.8313 0.0103257 12.3709
LeftToes  1.81573e-012 2.54609e-010 -3.45981e-011
334
root  -18.3252 39.1448 -1.32046 -4.57727 39.1566 0.927974
RightUpLeg  -11.2258 -6.78501 -12.0986
RightLeg  45.7594 -0.399021 -0.756484
RightFoot  -1.37771 -0.806241 9.13401
RightToes  5.82063e-011 0 -3.6325e-017
Spine  8.74627 -0.140731 -1.44096
Spine1  6.36022 0.247272 -5.90674
HEad  -18.2469 35.3093 -8.42076
LeftShoulder1  -0.113807 3.80254 -31.9368
LeftArm  29.3438 -13.1097 -55.8375
LeftForeArm  8.95459 -20.5629 -5.86122
LeftHand  -0.050322 3.11119 1.83279
RightShoulder  -0.417082 -4.78497 25.6468
RightArm  9.71864 -1.9996 47.2834
RightForeArm  5.88064 9.91327 5.83147
RightHand  -0.486914 3.41468 -6.6759
LeftUpLeg  1.20882 4.07227 -8.10425
LeftLeg  17.6964 -2.53584 -0.542317
LeftFoot  -11.7944 0.119351 12.3142
LeftToes  1.81573e-012 2.54609e-010 -3.45981e-011
335
root  -17.9962 39.1722 -0.456209 -4.88773 41.8936 0.441919
RightUpLeg  -12.1461 -5.26498 -12.2076
RightLeg  37.107 -0.364741 -0.563357
RightFoot  -1.73693 -0.836227 9.78977
RightToes  5.82063e-011 0 -3.6325e-017
Spine  9.03452 -0.322409 -1.11285
Spine1  6.16072 0.242149 -5.93214
HEad  -18.5383 34.0497 -8.12105
LeftShoulder1  -0.069692 3.68978 -31.3919
LeftArm  33.8941 -15.5126 -58.3848
LeftForeArm  8.19421 -23.7466 -4.61852
LeftHand  -0.0404435 2.71238 1.11844
RightShoulder  -0.42313 -4.79066 25.9463
RightArm  10.049 -2.70193 46.3754
RightForeArm  5.35292 9.96557 5.91107
RightHand  -0.548279 2.6008 -8.15456
LeftUpLeg  2.98363 3.85081 -7.15029
LeftLeg  17.3937 -5.21157 -0.819411
LeftFoot  -12.7927 0.227997 11.8127
LeftToes  1.81573e-012 2.54609e-010 -3.45981e-011
336
root  -17.6388 39.1519 0.44864 -4.8103 44.0849 0.374022
RightUpLeg  -12.5519 -3.72519 -12.7959
RightLeg  27.335 0.361479 0.0108209
RightFoot  -1.69388 -0.907536 10.5892
RightToes  5.82063e-011 0 -3.6325e-017
Spine  9.05167 -0.41248 -1.09809
Spine1  6.16049 0.253145 -5.74187
HEad  -18.8774 33.2191 -8.35198
LeftShoulder1  -0.0882237 3.73886 -31.4124
LeftArm  33.3662 -17.1087 -59.7523
LeftForeArm  11.8143 -26.7339 -5.10609
LeftHand  -0.0508617 1.71234 1.36255
RightShoulder  -0.366282 -4.63433 25.3838
RightArm  10.2826 -3.55146 46.5289
RightForeArm  6.39042 10.1453 5.91337
RightHand  -0.494173 2.24275 -7.70405
LeftUpLeg  4.56009 3.91107 -6.26674
LeftLeg  17.2692 -7.5493 -1.26436
LeftFoot  -13.9464 0.354834 11.8678
LeftToes  1.81573e-012 2.54609e-010 -3.45981e-011
337
root  -17.2369 39.1118 1.36946 -4.35056 46.2558 0.493483
RightUpLeg  -12.6191 -3.81233 -13.3753
RightLeg  17.0601 1.7585 0.205658
RightFoot  -1.2523 -0.978119 10.9483
RightToes  5.82063e-011 0 -3.6325e-017
Spine  9.03682 -0.600944 -0.886934
Spine1  5.83688 0.219548 -5.69881
HEad  -19.1348 32.054 -8.43596
LeftShoulder1  -0.111836 3.80118 -31.4798
LeftArm  32.3701 -17.8613 -60.1221
LeftForeArm  14.6933 -29.7152 -5.6541
LeftHand  -0.0348292 1.13975 0.787815
RightShoulder  -0.344063 -4.57042 25.1964
RightArm  10.2281 -4.59329 46.7084
RightForeArm  6.86537 10.3122 5.84274
RightHand  -0.53076 2.72282 -7.81406
LeftUpLeg  6.02402 3.7421 -5.49787
LeftLeg  16.8671 -9.80694 -1.63453
LeftFoot  -15.0089 0.464819 11.6478
LeftToes  1.81573e-012 2.54609e-010 -3.45981e-011
338
root  -16.7925 39.0363 2.29971 -3.96951 47.9386 0.738546
RightUpLeg  -12.3787 -6.07861 -12.9971
RightLeg  7.33579 5.09323 -0.983446
RightFoot  -1.10281 -1.13494 12.5407
RightToes  5.82063e-011 0 -3.6325e-017
Spine  8.96348 -0.676973 -0.230578
Spine1  6.01053 0.42016 -6.06455
HEad  -19.4999 31.1221 -8.93497
LeftShoulder1  -0.108957 3.79559 -31.3444
LeftArm  31.0297 -17.9627 -60.1473
LeftForeArm  17.113 -32.4241 -6.18009
LeftHand  -0.0468824 1.05204 1.10401
RightShoulder  -0.364882 -4.63828 25.1439
RightArm  9.93563 -5.42659 47.1148
RightForeArm  6.93238 10.728 5.66871
RightHand  -0.5105 3.23782 -7.09862
LeftUpLeg  7.76637 3.70992 -4.70742
LeftLeg  16.3088 -11.633 -1.9334
LeftFoot  -16.1198 0.574887 11.4061
LeftToes  1.81573e-012 2.54609e-010 -3.45981e-011
